# xmcd
#
# Track frame offsets:
#	150
#	12884
#	28373
#	39640
#	54546
#	66596
#	79235
#	92220
#	105524
#	114021
#	127334
#	139000
#	155355
#	166845
#	180696
#	194074
#	208758
#	222972
#	236074
#	248925
#	262178
#	275659
#	288996
#	301534
#
# Disc length: 4173 seconds
#
# Revision: 1
# Processed by: cddbd v1.5.2PL0 Copyright (c) Steve Scherf et al.
# Submitted via: audiograbber 1.83.01
#
DISCID=6c104b18
DTITLE=Nat King Cole - Sings For Two In Love and Sings Ballads Of The Day
DYEAR=1900
DGENRE=Oldies
TTITLE0=Love Is Here To Stay
TTITLE1=A Handful Of Stars
TTITLE2=This Can`t Be Love
TTITLE3=A Little Street Where Old Friends Meet
TTITLE4=Autumn Leaves
TTITLE5=Let`s Fall In Love
TTITLE6=There Goes My Heart
TTITLE7=Dinner For One Please, james
TTITLE8=Almost Like Being In Love
TTITLE9=Tenderly
TTITLE10=You Stepeped Out Of A Dream
TTITLE11=There Will Never Be Another You
TTITLE12=A Blossom Fell
TTITLE13=Unbelievable
TTITLE14=Blue Gardenia
TTITLE15=Angel Eyes
TTITLE16=It Happens To Be Me
TTITLE17=Smile
TTITLE18=Darling, Joe Vous Aime Beaucoup
TTITLE19=Along Too Long
TTITLE20=My One Sin (in Life)
TTITLE21=Return To Paradise
TTITLE22=If Love Is Good To Me
TTITLE23=The Sand And The Sea
EXTD=
EXTT0=
EXTT1=
EXTT2=
EXTT3=
EXTT4=
EXTT5=
EXTT6=
EXTT7=
EXTT8=
EXTT9=
EXTT10=
EXTT11=
EXTT12=
EXTT13=
EXTT14=
EXTT15=
EXTT16=
EXTT17=
EXTT18=
EXTT19=
EXTT20=
EXTT21=
EXTT22=
EXTT23=
PLAYORDER=
